<?xml version="1.0" encoding="UTF-8" standalone="no"?>
<!DOCTYPE svg PUBLIC "-//W3C//DTD SVG 1.1//EN"
 "http://www.w3.org/Graphics/SVG/1.1/DTD/svg11.dtd">
<!-- Generated by graphviz version 14.1.2 (20260124.0452)
 -->
<!-- Pages: 1 -->
<svg width="908pt" height="477pt"
 viewBox="0.00 0.00 908.00 477.00" xmlns="http://www.w3.org/2000/svg" xmlns:xlink="http://www.w3.org/1999/xlink">
<g id="graph0" class="graph" transform="scale(1 1) rotate(0) translate(4 473)">
<polygon fill="white" stroke="none" points="-4,4 -4,-473 904,-473 904,4 -4,4"/>
<g id="clust1" class="cluster">
<title>cluster_Admin</title>
<polygon fill="none" stroke="black" points="122,-384.5 122,-461 212,-461 212,-384.5 122,-384.5"/>
<text xml:space="preserve" text-anchor="middle" x="167" y="-443.7" font-family="Times,serif" font-size="14.00">Admin</text>
</g>
<g id="clust2" class="cluster">
<title>cluster_Runtime</title>
<polygon fill="none" stroke="black" points="588,-8 588,-461 892,-461 892,-8 588,-8"/>
<text xml:space="preserve" text-anchor="middle" x="740" y="-443.7" font-family="Times,serif" font-size="14.00">Runtime</text>
</g>
<g id="clust3" class="cluster">
<title>cluster_Features</title>
<polygon fill="none" stroke="black" points="8,-273.5 8,-350 580,-350 580,-273.5 8,-273.5"/>
<text xml:space="preserve" text-anchor="middle" x="294" y="-332.7" font-family="Times,serif" font-size="14.00">Features</text>
</g>
<!-- Admin -->
<g id="node1" class="node">
<title>Admin</title>
<ellipse fill="none" stroke="black" cx="167" cy="-410.5" rx="37.02" ry="18"/>
<text xml:space="preserve" text-anchor="middle" x="167" y="-405.45" font-family="Times,serif" font-size="14.00">Admin</text>
</g>
<!-- Core -->
<g id="node2" class="node">
<title>Core</title>
<ellipse fill="none" stroke="black" cx="764" cy="-410.5" rx="28.83" ry="18"/>
<text xml:space="preserve" text-anchor="middle" x="764" y="-405.45" font-family="Times,serif" font-size="14.00">Core</text>
</g>
<!-- Admin&#45;&gt;Core -->
<g id="edge14" class="edge">
<title>Admin&#45;&gt;Core</title>
<path fill="none" stroke="black" d="M204.35,-410.5C310.5,-410.5 613.4,-410.5 723.43,-410.5"/>
<polygon fill="black" stroke="black" points="723.16,-414 733.16,-410.5 723.16,-407 723.16,-414"/>
<text xml:space="preserve" text-anchor="middle" x="469.59" y="-416.7" font-family="Times,serif" font-size="14.00">16</text>
</g>
<!-- Webhook -->
<g id="node7" class="node">
<title>Webhook</title>
<ellipse fill="none" stroke="black" cx="63" cy="-299.5" rx="46.75" ry="18"/>
<text xml:space="preserve" text-anchor="middle" x="63" y="-294.45" font-family="Times,serif" font-size="14.00">Webhook</text>
</g>
<!-- Admin&#45;&gt;Webhook -->
<g id="edge15" class="edge">
<title>Admin&#45;&gt;Webhook</title>
<path fill="none" stroke="black" d="M152.1,-393.88C134.92,-375.88 106.47,-346.06 86.35,-324.97"/>
<polygon fill="black" stroke="black" points="89.03,-322.71 79.6,-317.9 83.97,-327.55 89.03,-322.71"/>
<text xml:space="preserve" text-anchor="middle" x="136.74" y="-361.2" font-family="Times,serif" font-size="14.00">3</text>
</g>
<!-- Models -->
<g id="node9" class="node">
<title>Models</title>
<ellipse fill="none" stroke="black" cx="167" cy="-299.5" rx="39.07" ry="18"/>
<text xml:space="preserve" text-anchor="middle" x="167" y="-294.45" font-family="Times,serif" font-size="14.00">Models</text>
</g>
<!-- Admin&#45;&gt;Models -->
<g id="edge16" class="edge">
<title>Admin&#45;&gt;Models</title>
<path fill="none" stroke="black" d="M167,-392.47C167,-375.53 167,-349.23 167,-329.09"/>
<polygon fill="black" stroke="black" points="170.5,-329.28 167,-319.28 163.5,-329.28 170.5,-329.28"/>
<text xml:space="preserve" text-anchor="middle" x="170.38" y="-361.2" font-family="Times,serif" font-size="14.00">2</text>
</g>
<!-- Core&#45;&gt;Admin -->
<g id="edge11" class="edge">
<title>Core&#45;&gt;Admin</title>
<path fill="none" stroke="red" d="M734.67,-410.5C638.93,-410.5 334.85,-410.5 215.63,-410.5"/>
<polygon fill="red" stroke="red" points="215.86,-407 205.86,-410.5 215.86,-414 215.86,-407"/>
<text xml:space="preserve" text-anchor="middle" x="469.59" y="-416.7" font-family="Times,serif" font-size="14.00">6</text>
</g>
<!-- Security -->
<g id="node3" class="node">
<title>Security</title>
<ellipse fill="none" stroke="black" cx="686" cy="-299.5" rx="41.63" ry="18"/>
<text xml:space="preserve" text-anchor="middle" x="686" y="-294.45" font-family="Times,serif" font-size="14.00">Security</text>
</g>
<!-- Core&#45;&gt;Security -->
<g id="edge9" class="edge">
<title>Core&#45;&gt;Security</title>
<path fill="none" stroke="black" d="M752.82,-393.88C740.24,-376.3 719.6,-347.45 704.58,-326.46"/>
<polygon fill="black" stroke="black" points="707.47,-324.49 698.8,-318.39 701.78,-328.56 707.47,-324.49"/>
<text xml:space="preserve" text-anchor="middle" x="742.15" y="-361.2" font-family="Times,serif" font-size="14.00">4</text>
</g>
<!-- Firewall -->
<g id="node4" class="node">
<title>Firewall</title>
<ellipse fill="none" stroke="black" cx="739" cy="-122.5" rx="41.63" ry="18"/>
<text xml:space="preserve" text-anchor="middle" x="739" y="-117.45" font-family="Times,serif" font-size="14.00">Firewall</text>
</g>
<!-- Core&#45;&gt;Firewall -->
<g id="edge4" class="edge">
<title>Core&#45;&gt;Firewall</title>
<path fill="none" stroke="black" d="M736.13,-405.01C705.84,-398.54 658.61,-383.45 635,-350 603.86,-305.88 626.45,-282.94 624,-229 623.27,-213.02 616.14,-206.94 624,-193 639.14,-166.15 669.29,-148.51 694.92,-137.71"/>
<polygon fill="black" stroke="black" points="696.15,-140.99 704.16,-134.06 693.57,-134.48 696.15,-140.99"/>
<text xml:space="preserve" text-anchor="middle" x="627.29" y="-250.2" font-family="Times,serif" font-size="14.00">6</text>
</g>
<!-- FirewallIpFilter -->
<g id="node5" class="node">
<title>FirewallIpFilter</title>
<ellipse fill="none" stroke="black" cx="702" cy="-211" rx="69.26" ry="18"/>
<text xml:space="preserve" text-anchor="middle" x="702" y="-205.95" font-family="Times,serif" font-size="14.00">FirewallIpFilter</text>
</g>
<!-- Core&#45;&gt;FirewallIpFilter -->
<g id="edge3" class="edge">
<title>Core&#45;&gt;FirewallIpFilter</title>
<path fill="none" stroke="black" d="M762.37,-392.27C759.49,-365.97 752.3,-314.55 737,-273.5 732.56,-261.59 725.99,-249.25 719.74,-238.79"/>
<polygon fill="black" stroke="black" points="722.73,-236.97 714.48,-230.31 716.78,-240.66 722.73,-236.97"/>
<text xml:space="preserve" text-anchor="middle" x="759.52" y="-294.45" font-family="Times,serif" font-size="14.00">2</text>
</g>
<!-- Policy -->
<g id="node6" class="node">
<title>Policy</title>
<ellipse fill="none" stroke="black" cx="769" cy="-34" rx="34.46" ry="18"/>
<text xml:space="preserve" text-anchor="middle" x="769" y="-28.95" font-family="Times,serif" font-size="14.00">Policy</text>
</g>
<!-- Core&#45;&gt;Policy -->
<g id="edge6" class="edge">
<title>Core&#45;&gt;Policy</title>
<path fill="none" stroke="black" d="M779.25,-394.82C797.9,-375.22 827,-338.53 827,-300.5 827,-300.5 827,-300.5 827,-121.5 827,-96.56 810.16,-73.38 794.62,-57.3"/>
<polygon fill="black" stroke="black" points="797.4,-55.12 787.8,-50.63 792.5,-60.13 797.4,-55.12"/>
<text xml:space="preserve" text-anchor="middle" x="830.38" y="-205.95" font-family="Times,serif" font-size="14.00">4</text>
</g>
<!-- Core&#45;&gt;Webhook -->
<g id="edge7" class="edge">
<title>Core&#45;&gt;Webhook</title>
<path fill="none" stroke="black" d="M734.93,-409.03C636.19,-407.24 314.33,-399.56 214.25,-374.5 197.08,-370.2 195.01,-362.91 178,-358 152.58,-350.66 143.06,-361.01 119,-350 106.22,-344.15 94.24,-334.39 84.66,-325.08"/>
<polygon fill="black" stroke="black" points="87.44,-322.92 77.96,-318.21 82.43,-327.81 87.44,-322.92"/>
<text xml:space="preserve" text-anchor="middle" x="217.62" y="-361.2" font-family="Times,serif" font-size="14.00">6</text>
</g>
<!-- Collections -->
<g id="node8" class="node">
<title>Collections</title>
<ellipse fill="none" stroke="black" cx="277" cy="-299.5" rx="52.89" ry="18"/>
<text xml:space="preserve" text-anchor="middle" x="277" y="-294.45" font-family="Times,serif" font-size="14.00">Collections</text>
</g>
<!-- Core&#45;&gt;Collections -->
<g id="edge10" class="edge">
<title>Core&#45;&gt;Collections</title>
<path fill="none" stroke="black" d="M735.06,-408.19C658.61,-404.5 452.64,-393.1 387.25,-374.5 381.37,-372.83 343.14,-353.31 338,-350 326.11,-342.35 313.85,-332.78 303.47,-324.1"/>
<polygon fill="black" stroke="black" points="305.91,-321.59 296.04,-317.76 301.37,-326.91 305.91,-321.59"/>
<text xml:space="preserve" text-anchor="middle" x="390.62" y="-361.2" font-family="Times,serif" font-size="14.00">6</text>
</g>
<!-- Routes -->
<g id="node10" class="node">
<title>Routes</title>
<ellipse fill="none" stroke="black" cx="384" cy="-299.5" rx="36.51" ry="18"/>
<text xml:space="preserve" text-anchor="middle" x="384" y="-294.45" font-family="Times,serif" font-size="14.00">Routes</text>
</g>
<!-- Core&#45;&gt;Routes -->
<g id="edge5" class="edge">
<title>Core&#45;&gt;Routes</title>
<path fill="none" stroke="black" d="M735.17,-408.24C669.12,-405.03 508.72,-395.27 459.25,-374.5 446.5,-369.15 422.64,-344.4 405.19,-324.97"/>
<polygon fill="black" stroke="black" points="407.95,-322.81 398.7,-317.65 402.71,-327.45 407.95,-322.81"/>
<text xml:space="preserve" text-anchor="middle" x="462.62" y="-361.2" font-family="Times,serif" font-size="14.00">2</text>
</g>
<!-- GlobalSecurity -->
<g id="node11" class="node">
<title>GlobalSecurity</title>
<ellipse fill="none" stroke="black" cx="505" cy="-299.5" rx="66.71" ry="18"/>
<text xml:space="preserve" text-anchor="middle" x="505" y="-294.45" font-family="Times,serif" font-size="14.00">GlobalSecurity</text>
</g>
<!-- Core&#45;&gt;GlobalSecurity -->
<g id="edge8" class="edge">
<title>Core&#45;&gt;GlobalSecurity</title>
<path fill="none" stroke="black" d="M735.06,-407.71C683.93,-404.08 580.21,-394.43 550.5,-374.5 534.12,-363.51 522.6,-344.43 515.25,-328.39"/>
<polygon fill="black" stroke="black" points="518.53,-327.16 511.41,-319.31 512.08,-329.89 518.53,-327.16"/>
<text xml:space="preserve" text-anchor="middle" x="557.25" y="-361.2" font-family="Times,serif" font-size="14.00">12</text>
</g>
<!-- Security&#45;&gt;Core -->
<g id="edge12" class="edge">
<title>Security&#45;&gt;Core</title>
<path fill="none" stroke="black" d="M690.14,-317.74C694.6,-333.69 702.92,-357.44 716.25,-374.5 721.1,-380.7 727.32,-386.33 733.66,-391.17"/>
<polygon fill="black" stroke="black" points="731.45,-393.89 741.64,-396.79 735.48,-388.17 731.45,-393.89"/>
<text xml:space="preserve" text-anchor="middle" x="719.62" y="-361.2" font-family="Times,serif" font-size="14.00">7</text>
</g>
<!-- Security&#45;&gt;FirewallIpFilter -->
<g id="edge13" class="edge">
<title>Security&#45;&gt;FirewallIpFilter</title>
<path fill="none" stroke="black" d="M689.16,-281.41C691.32,-269.76 694.22,-254.05 696.72,-240.52"/>
<polygon fill="black" stroke="black" points="700.14,-241.31 698.52,-230.84 693.25,-240.04 700.14,-241.31"/>
<text xml:space="preserve" text-anchor="middle" x="698.81" y="-250.2" font-family="Times,serif" font-size="14.00">4</text>
</g>
<!-- Firewall&#45;&gt;Core -->
<g id="edge18" class="edge">
<title>Firewall&#45;&gt;Core</title>
<path fill="none" stroke="black" d="M752.22,-140.04C762.04,-153.44 774.61,-173.27 780,-193 797.97,-258.83 782.52,-339.84 771.93,-381.62"/>
<polygon fill="black" stroke="black" points="768.6,-380.54 769.43,-391.1 775.37,-382.33 768.6,-380.54"/>
<text xml:space="preserve" text-anchor="middle" x="795" y="-250.2" font-family="Times,serif" font-size="14.00">26</text>
</g>
<!-- Firewall&#45;&gt;FirewallIpFilter -->
<g id="edge20" class="edge">
<title>Firewall&#45;&gt;FirewallIpFilter</title>
<path fill="none" stroke="black" d="M718.62,-138.5C712.64,-144.06 706.82,-150.88 703.5,-158.5 700.45,-165.5 699.27,-173.55 699.05,-181.18"/>
<polygon fill="black" stroke="black" points="695.55,-181.19 699.32,-191.09 702.54,-181 695.55,-181.19"/>
<text xml:space="preserve" text-anchor="middle" x="710.25" y="-161.7" font-family="Times,serif" font-size="14.00">11</text>
</g>
<!-- Firewall&#45;&gt;Policy -->
<g id="edge19" class="edge">
<title>Firewall&#45;&gt;Policy</title>
<path fill="none" stroke="black" d="M737.62,-104.28C737.4,-94.02 738.17,-80.91 742.25,-70 743.56,-66.49 745.35,-63.04 747.39,-59.76"/>
<polygon fill="black" stroke="black" points="750.15,-61.92 753.13,-51.75 744.46,-57.84 750.15,-61.92"/>
<text xml:space="preserve" text-anchor="middle" x="745.62" y="-73.2" font-family="Times,serif" font-size="14.00">3</text>
</g>
<!-- FirewallIpFilter&#45;&gt;Firewall -->
<g id="edge27" class="edge">
<title>FirewallIpFilter&#45;&gt;Firewall</title>
<path fill="none" stroke="red" d="M709.33,-192.91C711.77,-187.22 714.5,-180.83 717,-175 720.33,-167.22 723.93,-158.78 727.25,-151.03"/>
<polygon fill="red" stroke="red" points="730.37,-152.63 731.08,-142.06 723.93,-149.88 730.37,-152.63"/>
<text xml:space="preserve" text-anchor="middle" x="727.03" y="-161.7" font-family="Times,serif" font-size="14.00">2</text>
</g>
<!-- Policy&#45;&gt;Core -->
<g id="edge24" class="edge">
<title>Policy&#45;&gt;Core</title>
<path fill="none" stroke="black" d="M796.87,-45C826.76,-57.73 870,-82.83 870,-121.5 870,-300.5 870,-300.5 870,-300.5 870,-343.19 827.7,-375.44 796.54,-393.41"/>
<polygon fill="black" stroke="black" points="794.88,-390.33 787.81,-398.22 798.25,-396.46 794.88,-390.33"/>
<text xml:space="preserve" text-anchor="middle" x="876.75" y="-205.95" font-family="Times,serif" font-size="14.00">17</text>
</g>
<!-- Policy&#45;&gt;Firewall -->
<g id="edge25" class="edge">
<title>Policy&#45;&gt;Firewall</title>
<path fill="none" stroke="black" d="M763.09,-52.05C758.98,-63.89 753.42,-79.93 748.67,-93.62"/>
<polygon fill="black" stroke="black" points="745.39,-92.39 745.42,-102.98 752.01,-94.68 745.39,-92.39"/>
<text xml:space="preserve" text-anchor="middle" x="760.06" y="-73.2" font-family="Times,serif" font-size="14.00">3</text>
</g>
<!-- Policy&#45;&gt;Routes -->
<g id="edge26" class="edge">
<title>Policy&#45;&gt;Routes</title>
<path fill="none" stroke="red" d="M746.5,-48.06C702.21,-74.04 601.09,-134.74 521,-193 482.35,-221.12 438.78,-255.07 411.36,-276.73"/>
<polygon fill="red" stroke="red" points="409.23,-273.95 403.56,-282.9 413.57,-279.44 409.23,-273.95"/>
<text xml:space="preserve" text-anchor="middle" x="572.5" y="-161.7" font-family="Times,serif" font-size="14.00">3</text>
</g>
<!-- Webhook&#45;&gt;Core -->
<g id="edge1" class="edge">
<title>Webhook&#45;&gt;Core</title>
<path fill="none" stroke="black" d="M76.33,-316.93C86.66,-328.37 102.03,-342.81 119,-350 140.14,-358.95 199.37,-354.12 222,-358 249.89,-362.78 255.6,-369.78 283.5,-374.5 444.84,-401.77 640.19,-407.8 723.35,-409.13"/>
<polygon fill="black" stroke="black" points="723.23,-412.63 733.28,-409.27 723.33,-405.63 723.23,-412.63"/>
<text xml:space="preserve" text-anchor="middle" x="290.25" y="-361.2" font-family="Times,serif" font-size="14.00">22</text>
</g>
<!-- Collections&#45;&gt;Core -->
<g id="edge21" class="edge">
<title>Collections&#45;&gt;Core</title>
<path fill="none" stroke="black" d="M292.45,-317.07C303.9,-328.27 320.5,-342.36 338,-350 361.04,-360.06 370.45,-349.19 394,-358 406.64,-362.73 406.76,-370.03 419.5,-374.5 474.73,-393.9 645.31,-404.04 723.76,-407.78"/>
<polygon fill="black" stroke="black" points="723.43,-411.27 733.58,-408.24 723.75,-404.28 723.43,-411.27"/>
<text xml:space="preserve" text-anchor="middle" x="426.25" y="-361.2" font-family="Times,serif" font-size="14.00">10</text>
</g>
<!-- Models&#45;&gt;Core -->
<g id="edge17" class="edge">
<title>Models&#45;&gt;Core</title>
<path fill="none" stroke="black" d="M177.96,-316.84C186.58,-328.23 199.67,-342.66 215,-350 249.62,-366.59 263.61,-349.3 301,-358 321.04,-362.66 324.19,-369.93 344.25,-374.5 480.8,-405.58 647.94,-409.75 723.5,-409.87"/>
<polygon fill="black" stroke="black" points="723.31,-413.37 733.31,-409.86 723.3,-406.37 723.31,-413.37"/>
<text xml:space="preserve" text-anchor="middle" x="347.62" y="-361.2" font-family="Times,serif" font-size="14.00">3</text>
</g>
<!-- Routes&#45;&gt;Core -->
<g id="edge22" class="edge">
<title>Routes&#45;&gt;Core</title>
<path fill="none" stroke="black" d="M394.68,-316.75C402.8,-327.8 414.94,-341.84 429,-350 443.18,-358.23 449.12,-353.95 465,-358 490.66,-364.54 496.36,-368.92 522.25,-374.5 592.72,-389.68 676.19,-400.13 724.33,-405.44"/>
<polygon fill="black" stroke="black" points="723.67,-408.89 733.99,-406.49 724.42,-401.93 723.67,-408.89"/>
<text xml:space="preserve" text-anchor="middle" x="525.62" y="-361.2" font-family="Times,serif" font-size="14.00">4</text>
</g>
<!-- Routes&#45;&gt;Firewall -->
<g id="edge23" class="edge">
<title>Routes&#45;&gt;Firewall</title>
<path fill="none" stroke="red" d="M405.83,-284.74C413,-280.67 421.15,-276.5 429,-273.5 447.73,-266.34 454.86,-272.05 473,-263.5 542.07,-230.94 540.58,-192.42 609,-158.5 634.15,-146.03 664.32,-137.56 689.26,-132.08"/>
<polygon fill="red" stroke="red" points="689.76,-135.55 698.83,-130.07 688.32,-128.7 689.76,-135.55"/>
<text xml:space="preserve" text-anchor="middle" x="562.06" y="-205.95" font-family="Times,serif" font-size="14.00">9</text>
</g>
<!-- GlobalSecurity&#45;&gt;Core -->
<g id="edge2" class="edge">
<title>GlobalSecurity&#45;&gt;Core</title>
<path fill="none" stroke="black" d="M520.64,-317.38C537.47,-334.47 565.82,-360.34 595.5,-374.5 636.69,-394.15 688.71,-402.81 723.97,-406.6"/>
<polygon fill="black" stroke="black" points="723.45,-410.07 733.74,-407.56 724.13,-403.1 723.45,-410.07"/>
<text xml:space="preserve" text-anchor="middle" x="602.25" y="-361.2" font-family="Times,serif" font-size="14.00">41</text>
</g>
</g>
</svg>
